<svg xmlns="http://www.w3.org/2000/svg" xml:space="preserve" style="enable-background:new 0 0 47.5 47.5" viewBox="0 0 47.5 47.5" id="dice">
  <defs>
    <clipPath id="a">
      <path d="M0 38h38V0H0v38Z"></path>
    </clipPath>
  </defs>
  <g clip-path="url(#a)" transform="matrix(1.25 0 0 -1.25 0 47.5)">
    <path d="M0 0v-12.375c0-2.042 1.093-2.484 1.093-2.484l11.574-9.099C14.488-25.39 14-22.375 14-22.375V-11L0 0Z" style="fill:#a0041e;fill-opacity:1;fill-rule:nonzero;stroke:none" transform="translate(5 26)"></path>
    <path d="M0 0v-12.375c0-2.042-1.063-2.484-1.063-2.484s-9.767-7.667-11.588-9.099C-14.474-25.39-14-22.375-14-22.375V-11L0 0Z" style="fill:#dd2e44;fill-opacity:1;fill-rule:nonzero;stroke:none" transform="translate(33 26)"></path>
    <path d="M0 0c-.753.61-1.988.61-2.742 0l-11.982-9.529c-.754-.61-.754-1.607 0-2.216l12.023-9.647c.755-.609 1.989-.609 2.743 0l12.104 9.731c.753.609.753 1.606 0 2.216L0 0Z" style="fill:#ea596e;fill-opacity:1;fill-rule:nonzero;stroke:none" transform="translate(20.29 36.5)"></path>
    <path d="M0 0c0-1.289-1.306-2.333-2.916-2.333-1.611 0-2.916 1.044-2.916 2.333 0 1.289 1.305 2.333 2.916 2.333C-1.306 2.333 0 1.289 0 0" style="fill:#fff;fill-opacity:1;fill-rule:nonzero;stroke:none" transform="translate(22.416 26)"></path>
    <path d="M0 0c-.872 0-1.375.902-1.123 2.017C-.872 3.13.039 4.033.911 4.033c.873 0 1.376-.903 1.124-2.016C1.784.902.872 0 0 0" style="fill:#fff;fill-opacity:1;fill-rule:nonzero;stroke:none" transform="translate(29.544 16.467)"></path>
    <path d="M0 0c-.883 0-1.392.949-1.138 2.121C-.883 3.293.041 4.242.924 4.242c.884 0 1.392-.949 1.138-2.121C1.808.949.884 0 0 0" style="fill:#fff;fill-opacity:1;fill-rule:nonzero;stroke:none" transform="translate(26.454 11.258)"></path>
    <path d="M0 0c-.838 0-1.322.921-1.08 2.058C-.838 3.194.038 4.115.877 4.115s1.322-.921 1.081-2.057C1.716.921.839 0 0 0" style="fill:#fff;fill-opacity:1;fill-rule:nonzero;stroke:none" transform="translate(23.02 6.05)"></path>
    <path d="M0 0c-.994 0-1.567-1.007-1.28-2.249.286-1.243 1.325-2.25 2.319-2.25s1.567 1.007 1.28 2.25C2.033-1.007.994 0 0 0" style="fill:#e1e8ed;fill-opacity:1;fill-rule:nonzero;stroke:none" transform="translate(8.188 18.999)"></path>
    <path d="M0 0c-.994 0-1.567-1.007-1.281-2.25C-.994-3.492.045-4.5 1.039-4.5c.994 0 1.567 1.008 1.28 2.25C2.033-1.007.994 0 0 0" style="fill:#e1e8ed;fill-opacity:1;fill-rule:nonzero;stroke:none" transform="translate(13.771 11.5)"></path>
    <path d="M0 0c-.552 0-1 .482-1 1.078v12.927c0 .596.448 1.078 1 1.078.553 0 1-.482 1-1.078V1.078C1 .482.553 0 0 0" style="fill:#ea596e;fill-opacity:1;fill-rule:nonzero;stroke:none" transform="translate(19 1.25)"></path>
  </g>
</svg>
